<?xml version="1.0" encoding="UTF-8"?>
<svg xmlns="http://www.w3.org/2000/svg" xmlns:xlink="http://www.w3.org/1999/xlink" viewBox="0 0 60 60" width="60px" height="60px">
<g id="surface128291003">
<path style=" stroke:none;fill-rule:nonzero;fill:rgb(100%,100%,100%);fill-opacity:1;" d="M 12 8 C 9.789062 8 8 9.789062 8 12 L 8 48 C 8 50.210938 9.789062 52 12 52 L 48 52 C 50.210938 52 52 50.210938 52 48 L 52 12 C 52 9.789062 50.210938 8 48 8 Z M 12 12 L 48 12 L 48 24 L 41.480469 24 C 38.949219 20.375 34.753906 18 30 18 C 25.246094 18 21.050781 20.375 18.519531 24 L 12 24 Z M 42 16 L 42 20 L 46 20 L 46 16 Z M 30 22 C 35.515625 22 40 26.484375 40 32 C 40 37.515625 35.515625 42 30 42 C 24.484375 42 20 37.515625 20 32 C 20 26.484375 24.484375 22 30 22 Z M 30 26 C 29.074219 26 28.210938 26.226562 27.425781 26.601562 C 27.78125 26.960938 28 27.453125 28 28 C 28 29.105469 27.105469 30 26 30 C 25.453125 30 24.960938 29.78125 24.601562 29.425781 C 24.226562 30.210938 24 31.074219 24 32 C 24 35.3125 26.6875 38 30 38 C 33.3125 38 36 35.3125 36 32 C 36 28.6875 33.3125 26 30 26 Z M 30 26 "/>
</g>
</svg>
