<svg width="0" height="0" class="hidden">
  <symbol xmlns="http://www.w3.org/2000/svg" xmlns:xlink="http://www.w3.org/1999/xlink" viewBox="0 0 30 30" id="instagram-old-30">
    <g id="surface128205735">
      <path d="M 6 4 C 4.894531 4 4 4.894531 4 6 L 4 24 C 4 25.105469 4.894531 26 6 26 L 24 26 C 25.105469 26 26 25.105469 26 24 L 26 6 C 26 4.894531 25.105469 4 24 4 Z M 6 6 L 24 6 L 24 12 L 20.738281 12 C 19.476562 10.1875 17.378906 9 15 9 C 12.621094 9 10.523438 10.1875 9.261719 12 L 6 12 Z M 21 8 L 21 10 L 23 10 L 23 8 Z M 15 11 C 17.757812 11 20 13.242188 20 16 C 20 18.757812 17.757812 21 15 21 C 12.242188 21 10 18.757812 10 16 C 10 13.242188 12.242188 11 15 11 Z M 15 13 C 14.535156 13 14.105469 13.113281 13.710938 13.300781 C 13.890625 13.480469 14 13.726562 14 14 C 14 14.550781 13.550781 15 13 15 C 12.726562 15 12.480469 14.890625 12.300781 14.710938 C 12.113281 15.105469 12 15.535156 12 16 C 12 17.65625 13.34375 19 15 19 C 16.65625 19 18 17.65625 18 16 C 18 14.34375 16.65625 13 15 13 Z M 15 13 "></path>
    </g>
  </symbol>

  <symbol xmlns="http://www.w3.org/2000/svg" xmlns:xlink="http://www.w3.org/1999/xlink" viewBox="0 0 30 30" id="linkedin-30">
    <g id="surface128436908">
      <path d="M 24 4 L 6 4 C 4.894531 4 4 4.894531 4 6 L 4 24 C 4 25.105469 4.894531 26 6 26 L 24 26 C 25.105469 26 26 25.105469 26 24 L 26 6 C 26 4.894531 25.105469 4 24 4 Z M 10.953125 22 L 8.003906 22 L 8.003906 12.507812 L 10.953125 12.507812 Z M 9.449219 11.152344 C 8.496094 11.152344 7.730469 10.378906 7.730469 9.429688 C 7.730469 8.480469 8.5 7.710938 9.449219 7.710938 C 10.398438 7.710938 11.167969 8.484375 11.167969 9.429688 C 11.167969 10.378906 10.398438 11.152344 9.449219 11.152344 Z M 22.003906 22 L 19.054688 22 L 19.054688 17.382812 C 19.054688 16.28125 19.035156 14.867188 17.523438 14.867188 C 15.988281 14.867188 15.753906 16.066406 15.753906 17.304688 L 15.753906 22 L 12.804688 22 L 12.804688 12.507812 L 15.632812 12.507812 L 15.632812 13.804688 L 15.675781 13.804688 C 16.066406 13.058594 17.03125 12.273438 18.464844 12.273438 C 21.453125 12.273438 22.003906 14.238281 22.003906 16.792969 Z M 22.003906 22 "></path>
    </g>
  </symbol>

  <symbol xmlns="http://www.w3.org/2000/svg" xmlns:xlink="http://www.w3.org/1999/xlink" viewBox="0 0 30 30" id="twitter-30">
    <g id="surface128445119">
      <path d="M 28 6.9375 C 27.042969 7.363281 26.015625 7.648438 24.9375 7.777344 C 26.039062 7.117188 26.882812 6.070312 27.28125 4.824219 C 26.25 5.4375 25.109375 5.882812 23.894531 6.121094 C 22.921875 5.085938 21.535156 4.4375 20 4.4375 C 17.054688 4.4375 14.664062 6.824219 14.664062 9.769531 C 14.664062 10.1875 14.714844 10.597656 14.804688 10.984375 C 10.371094 10.761719 6.441406 8.640625 3.808594 5.410156 C 3.351562 6.199219 3.089844 7.113281 3.089844 8.09375 C 3.089844 9.945312 4.027344 11.578125 5.460938 12.53125 C 4.585938 12.503906 3.761719 12.265625 3.042969 11.867188 C 3.042969 11.890625 3.042969 11.910156 3.042969 11.933594 C 3.042969 14.519531 4.882812 16.675781 7.324219 17.164062 C 6.875 17.285156 6.402344 17.351562 5.917969 17.351562 C 5.574219 17.351562 5.238281 17.316406 4.914062 17.253906 C 5.59375 19.375 7.5625 20.917969 9.898438 20.960938 C 8.070312 22.390625 5.773438 23.242188 3.273438 23.242188 C 2.84375 23.242188 2.417969 23.21875 2 23.167969 C 4.359375 24.683594 7.164062 25.566406 10.175781 25.566406 C 19.988281 25.566406 25.351562 17.4375 25.351562 10.386719 C 25.351562 10.15625 25.347656 9.925781 25.335938 9.699219 C 26.378906 8.945312 27.285156 8.007812 28 6.9375 Z M 28 6.9375 "></path>
    </g>
  </symbol>

  <symbol xmlns="http://www.w3.org/2000/svg" xmlns:xlink="http://www.w3.org/1999/xlink" viewBox="0 0 30 30" id="facebook-30">
    <g id="surface128202857">
      <path d="M 24 4 L 6 4 C 4.894531 4 4 4.894531 4 6 L 4 24 C 4 25.105469 4.894531 26 6 26 L 16 26 L 16 17 L 13 17 L 13 14 L 16 14 L 16 12.390625 C 16 9.339844 17.484375 8 20.019531 8 C 21.234375 8 21.878906 8.089844 22.179688 8.132812 L 22.179688 11 L 20.453125 11 C 19.375 11 19 11.566406 19 12.71875 L 19 14 L 22.152344 14 L 21.726562 17 L 19 17 L 19 26 L 24 26 C 25.105469 26 26 25.105469 26 24 L 26 6 C 26 4.894531 25.105469 4 24 4 Z M 24 4 "></path>
    </g>
  </symbol>
  
  <symbol xmlns="http://www.w3.org/2000/svg" xmlns:xlink="http://www.w3.org/1999/xlink" viewBox="0 0 30 30" id="github-30">
    <g id="surface128433942">
      <path d="M 15 3 C 8.371094 3 3 8.371094 3 15 C 3 20.621094 6.871094 25.328125 12.09375 26.628906 C 12.035156 26.46875 12 26.28125 12 26.046875 L 12 23.996094 C 11.511719 23.996094 10.695312 23.996094 10.492188 23.996094 C 9.671875 23.996094 8.941406 23.644531 8.585938 22.988281 C 8.195312 22.257812 8.125 21.144531 7.152344 20.460938 C 6.863281 20.234375 7.082031 19.976562 7.414062 20.011719 C 8.03125 20.183594 8.539062 20.605469 9.019531 21.230469 C 9.5 21.859375 9.722656 22 10.617188 22 C 11.050781 22 11.699219 21.976562 12.308594 21.878906 C 12.636719 21.046875 13.203125 20.28125 13.894531 19.917969 C 9.898438 19.507812 7.992188 17.519531 7.992188 14.820312 C 7.992188 13.65625 8.488281 12.535156 9.328125 11.585938 C 9.054688 10.648438 8.707031 8.730469 9.433594 8 C 11.234375 8 12.320312 9.164062 12.582031 9.480469 C 13.476562 9.175781 14.460938 9 15.496094 9 C 16.53125 9 17.519531 9.175781 18.417969 9.484375 C 18.675781 9.171875 19.761719 8 21.566406 8 C 22.296875 8.730469 21.945312 10.65625 21.667969 11.59375 C 22.503906 12.539062 22.996094 13.660156 22.996094 14.820312 C 22.996094 17.515625 21.089844 19.503906 17.101562 19.917969 C 18.199219 20.488281 19 22.101562 19 23.3125 L 19 26.046875 C 19 26.152344 18.976562 26.226562 18.964844 26.316406 C 23.640625 24.675781 27 20.234375 27 15 C 27 8.371094 21.628906 3 15 3 Z M 15 3 "></path>
    </g>
  </symbol>
</svg>